<svg width="198" height="55" viewBox="0 0 198 55" fill="none" xmlns="http://www.w3.org/2000/svg">
<g clip-path="url(#clip0_175_94)">
<path d="M15.2857 38.0715C20.6113 38.0715 24.9285 33.7542 24.9285 28.4286C24.9285 23.103 20.6113 18.7858 15.2857 18.7858C9.96008 18.7858 5.64282 23.103 5.64282 28.4286C5.64282 33.7542 9.96008 38.0715 15.2857 38.0715Z" stroke="url(#paint0_linear_175_94)" stroke-width="3.57143"/>
<path d="M0.00261579 30.7144C0.000871931 30.8332 0 30.9522 0 31.0715C0 44.2869 10.7132 55.0001 23.9286 55.0001C37.1439 55.0001 47.8571 44.2869 47.8571 31.0715C47.8571 30.9522 47.8563 30.8332 47.8545 30.7144H0.00261579Z" fill="url(#paint1_linear_175_94)"/>
<path d="M35.6429 24.5C38.0098 24.5 39.9286 22.5812 39.9286 20.2143C39.9286 17.8474 38.0098 15.9286 35.6429 15.9286C33.276 15.9286 31.3572 17.8474 31.3572 20.2143C31.3572 22.5812 33.276 24.5 35.6429 24.5Z" stroke="#EAA427" stroke-width="2.14286"/>
<path d="M27.7857 10.2144C30.1526 10.2144 32.0714 8.29559 32.0714 5.92865C32.0714 3.56172 30.1526 1.64294 27.7857 1.64294C25.4188 1.64294 23.5 3.56172 23.5 5.92865C23.5 8.29559 25.4188 10.2144 27.7857 10.2144Z" stroke="#EA7727" stroke-width="2.14286"/>
<path d="M72.5625 54.375C71.2396 54.375 70.1406 54.2552 69.2656 54.0156C68.401 53.776 67.7031 53.4792 67.1719 53.125C66.651 52.7604 66.25 52.401 65.9688 52.0469C65.875 51.9115 65.7917 51.7812 65.7188 51.6562C65.6458 51.5312 65.5938 51.3906 65.5625 51.2344C65.5208 51.026 65.4792 50.7552 65.4375 50.4219C65.3958 50.0781 65.3906 49.6823 65.4219 49.2344C65.4323 49.0469 65.4688 48.9167 65.5312 48.8438C65.6042 48.7604 65.724 48.6979 65.8906 48.6562C66.1927 48.5833 66.5833 48.5208 67.0625 48.4688C67.5521 48.4062 67.901 48.375 68.1094 48.375C68.3281 48.375 68.5052 48.4167 68.6406 48.5C68.776 48.5833 68.9375 48.724 69.125 48.9219C69.3333 49.1406 69.6927 49.4219 70.2031 49.7656C70.7135 50.099 71.5 50.2656 72.5625 50.2656C73.5833 50.2656 74.3542 50.0521 74.875 49.625C75.3958 49.1979 75.6562 48.6042 75.6562 47.8438C75.6562 47.4375 75.5312 47.0573 75.2812 46.7031C75.0417 46.3385 74.599 45.9792 73.9531 45.625C73.3073 45.2604 72.3854 44.8802 71.1875 44.4844C69.2083 43.8177 67.7812 42.9896 66.9062 42C66.0312 41.0104 65.5938 39.6354 65.5938 37.875C65.5938 36.4167 65.9479 35.1979 66.6562 34.2188C67.3646 33.2396 68.3438 32.5 69.5938 32C70.8438 31.5 72.2865 31.25 73.9219 31.25C75.1823 31.25 76.224 31.401 77.0469 31.7031C77.8802 31.9948 78.526 32.3281 78.9844 32.7031C79.4427 33.0677 79.7396 33.3646 79.875 33.5938C79.9583 33.7292 80.0104 33.8333 80.0312 33.9062C80.0625 33.9688 80.0833 34.0573 80.0938 34.1719C80.125 34.4948 80.1354 34.8542 80.125 35.25C80.1146 35.6458 80.0781 36.0938 80.0156 36.5938C79.9844 36.7604 79.9271 36.875 79.8438 36.9375C79.7708 36.9896 79.6562 37.0156 79.5 37.0156C78.4896 37.0365 77.7083 36.9844 77.1562 36.8594C76.9375 36.8073 76.7917 36.7552 76.7188 36.7031C76.6458 36.651 76.5521 36.5677 76.4375 36.4531C76.2708 36.2552 76.0052 36.026 75.6406 35.7656C75.2865 35.4948 74.7135 35.3594 73.9219 35.3594C72.8281 35.3594 72.0521 35.6094 71.5938 36.1094C71.1354 36.599 70.9062 37.151 70.9062 37.7656C70.9062 38.4948 71.2448 39.0677 71.9219 39.4844C72.599 39.8906 73.6667 40.3542 75.125 40.875C76.3438 41.3021 77.3906 41.7656 78.2656 42.2656C79.1406 42.7656 79.8073 43.4062 80.2656 44.1875C80.7344 44.9688 80.9688 46 80.9688 47.2812C80.9688 48.875 80.599 50.1979 79.8594 51.25C79.1302 52.3021 78.1302 53.0885 76.8594 53.6094C75.599 54.1198 74.1667 54.375 72.5625 54.375ZM89.75 54.3906C86.0417 54.3906 84.1875 52.1458 84.1875 47.6562L84.1719 39.7188C84.1719 39.4688 84.224 39.276 84.3281 39.1406C84.7656 38.5677 85.4062 37.9479 86.25 37.2812C86.3958 37.1771 86.526 37.125 86.6406 37.125C86.776 37.125 86.9062 37.1771 87.0312 37.2812C87.4792 37.625 87.8542 37.9479 88.1562 38.25C88.4688 38.5521 88.7344 38.849 88.9531 39.1406C89.0573 39.276 89.1094 39.4688 89.1094 39.7188V47.2188C89.1094 49.4792 90.0052 50.6094 91.7969 50.6094C92.6823 50.6094 93.3906 50.3021 93.9219 49.6875C94.4531 49.0625 94.7188 48.2188 94.7188 47.1562V39.7188C94.7188 39.4688 94.7708 39.276 94.875 39.1406C95.3125 38.5677 95.9531 37.9479 96.7969 37.2812C96.9427 37.1771 97.0729 37.125 97.1875 37.125C97.3229 37.125 97.4531 37.1771 97.5781 37.2812C98.026 37.625 98.401 37.9479 98.7031 38.25C99.0156 38.5521 99.2812 38.849 99.5 39.1406C99.6042 39.276 99.6562 39.4688 99.6562 39.7188V53.2812C99.6562 53.4792 99.5885 53.651 99.4531 53.7969C99.3177 53.9323 99.1458 54 98.9375 54H96.5938C96.4271 54 96.276 53.9792 96.1406 53.9375C96.0156 53.8854 95.8958 53.7917 95.7812 53.6562L94.8125 52.4062H94.7031C94.5365 52.6458 94.276 52.9219 93.9219 53.2344C93.5781 53.5469 93.0729 53.8177 92.4062 54.0469C91.75 54.276 90.8646 54.3906 89.75 54.3906ZM108.344 54.3906C107.229 54.3906 106.302 54.2969 105.562 54.1094C104.833 53.9219 104.245 53.6979 103.797 53.4375C103.359 53.1667 103.016 52.9219 102.766 52.7031C102.578 52.526 102.557 52.3281 102.703 52.1094L104.297 49.75C104.526 49.4167 104.786 49.3958 105.078 49.6875C105.38 49.9792 105.786 50.2656 106.297 50.5469C106.818 50.8177 107.464 50.9531 108.234 50.9531C108.922 50.9531 109.484 50.8385 109.922 50.6094C110.37 50.3698 110.594 50.026 110.594 49.5781C110.594 49.2656 110.495 49.0104 110.297 48.8125C110.099 48.6146 109.75 48.4115 109.25 48.2031C108.75 47.9948 108.052 47.7292 107.156 47.4062C105.833 46.9271 104.833 46.349 104.156 45.6719C103.479 44.9948 103.141 44.0052 103.141 42.7031C103.141 41.5052 103.469 40.5312 104.125 39.7812C104.792 39.0312 105.641 38.4844 106.672 38.1406C107.714 37.7865 108.797 37.6094 109.922 37.6094C111.349 37.6094 112.349 37.7448 112.922 38.0156C113.505 38.276 113.88 38.4792 114.047 38.625C114.203 38.7604 114.312 38.9167 114.375 39.0938C114.51 39.5 114.615 40.0365 114.688 40.7031C114.729 41.0885 114.63 41.3438 114.391 41.4688C114.266 41.5417 114.068 41.6198 113.797 41.7031C113.526 41.7865 113.255 41.8594 112.984 41.9219C112.714 41.9844 112.51 42.0156 112.375 42.0156C112.333 42.0156 112.286 42.0052 112.234 41.9844C112.193 41.9531 112.115 41.8854 112 41.7812C111.865 41.6458 111.63 41.4896 111.297 41.3125C110.974 41.1354 110.526 41.0469 109.953 41.0469C109.391 41.0469 108.917 41.1406 108.531 41.3281C108.156 41.5052 107.969 41.8229 107.969 42.2812C107.969 42.7812 108.208 43.1562 108.688 43.4062C109.177 43.6562 109.979 43.9792 111.094 44.375C111.969 44.6771 112.729 45.0104 113.375 45.375C114.031 45.7292 114.536 46.1979 114.891 46.7812C115.245 47.3542 115.422 48.1302 115.422 49.1094C115.422 50.3802 115.073 51.4062 114.375 52.1875C113.688 52.9583 112.802 53.5208 111.719 53.875C110.646 54.2188 109.521 54.3906 108.344 54.3906ZM123.422 53.1719C123.422 53.4844 123.354 53.7031 123.219 53.8281C123.094 53.9427 122.875 54 122.562 54H119.344C119.031 54 118.807 53.9427 118.672 53.8281C118.547 53.7031 118.484 53.4844 118.484 53.1719V32.0312C118.484 31.7812 118.536 31.5885 118.641 31.4531C119.078 30.8802 119.719 30.2604 120.562 29.5938C120.708 29.4896 120.839 29.4375 120.953 29.4375C121.089 29.4375 121.219 29.4896 121.344 29.5938C121.792 29.9375 122.167 30.2604 122.469 30.5625C122.781 30.8646 123.047 31.1615 123.266 31.4531C123.37 31.5885 123.422 31.7812 123.422 32.0312V39.6094H123.484C123.714 39.3073 124.01 39.0052 124.375 38.7031C124.74 38.3906 125.224 38.1302 125.828 37.9219C126.443 37.7135 127.224 37.6094 128.172 37.6094C129.13 37.6094 130.052 37.8073 130.938 38.2031C131.823 38.599 132.547 39.2656 133.109 40.2031C133.672 41.1406 133.953 42.4219 133.953 44.0469V53.1719C133.953 53.4844 133.885 53.7031 133.75 53.8281C133.625 53.9427 133.406 54 133.094 54H129.875C129.562 54 129.339 53.9427 129.203 53.8281C129.078 53.7031 129.016 53.4844 129.016 53.1719V44.9062C129.016 43.75 128.776 42.9115 128.297 42.3906C127.818 41.8594 127.167 41.5938 126.344 41.5938C125.531 41.5938 124.901 41.7708 124.453 42.125C124.005 42.4792 123.661 42.9271 123.422 43.4688V53.1719ZM137.453 32.75C137.453 32.6146 137.495 32.4948 137.578 32.3906C137.661 32.2865 137.771 32.151 137.906 31.9844C138.198 31.651 138.536 31.3021 138.922 30.9375C139.307 30.5625 139.698 30.2031 140.094 29.8594C140.344 29.6615 140.531 29.5625 140.656 29.5625C140.781 29.5625 140.974 29.6615 141.234 29.8594C142.078 30.5885 142.797 31.2969 143.391 31.9844C143.526 32.1406 143.635 32.276 143.719 32.3906C143.812 32.4948 143.859 32.6146 143.859 32.75C143.859 32.8854 143.812 33.0052 143.719 33.1094C143.635 33.2135 143.521 33.3542 143.375 33.5312C143.094 33.8542 142.766 34.2031 142.391 34.5781C142.016 34.9427 141.63 35.2917 141.234 35.625C141.089 35.75 140.974 35.8333 140.891 35.875C140.807 35.9062 140.729 35.9219 140.656 35.9219C140.583 35.9219 140.505 35.9062 140.422 35.875C140.349 35.8333 140.229 35.75 140.062 35.625C139.646 35.2917 139.255 34.9427 138.891 34.5781C138.526 34.2031 138.198 33.8438 137.906 33.5C137.771 33.3333 137.661 33.2031 137.578 33.1094C137.495 33.0052 137.453 32.8854 137.453 32.75ZM143.109 53.1719C143.109 53.4844 143.042 53.7031 142.906 53.8281C142.781 53.9427 142.562 54 142.25 54H139.031C138.719 54 138.495 53.9427 138.359 53.8281C138.234 53.7031 138.172 53.4844 138.172 53.1719V38.8281C138.172 38.5156 138.234 38.3021 138.359 38.1875C138.495 38.0625 138.719 38 139.031 38H142.25C142.562 38 142.781 38.0625 142.906 38.1875C143.042 38.3021 143.109 38.5156 143.109 38.8281V53.1719Z" fill="black"/>
<path d="M155.906 45.2344C154.312 46.1094 153.188 47.0938 152.531 48.1875C151.885 49.2812 151.562 50.6562 151.562 52.3125V53.1719C151.562 53.4844 151.5 53.7031 151.375 53.8281C151.25 53.9427 151.036 54 150.734 54H147.484C147.193 54 146.979 53.9427 146.844 53.8281C146.719 53.7031 146.656 53.4844 146.656 53.1719V52.3125C146.656 50.7604 146.828 49.4479 147.172 48.375C147.516 47.2917 148.083 46.3333 148.875 45.5C149.677 44.6667 150.766 43.849 152.141 43.0469C150.578 42.151 149.349 41.0729 148.453 39.8125C147.568 38.5417 147.125 37.1406 147.125 35.6094V34.0938C147.125 33.7917 147.177 33.5625 147.281 33.4062C147.75 32.7188 148.406 31.9948 149.25 31.2344C149.406 31.1094 149.547 31.0469 149.672 31.0469C149.797 31.0469 149.927 31.1094 150.062 31.2344C150.521 31.6302 150.906 32.0104 151.219 32.375C151.531 32.7292 151.802 33.0729 152.031 33.4062C152.135 33.5729 152.188 33.8021 152.188 34.0938V35.6094C152.188 36.4635 152.531 37.3646 153.219 38.3125C153.917 39.2604 154.87 40.0469 156.078 40.6719C157.276 40.0573 158.135 39.3177 158.656 38.4531C159.177 37.5885 159.438 36.6406 159.438 35.6094V34.0938C159.438 33.7917 159.49 33.5625 159.594 33.4062C160.042 32.7292 160.677 32.0052 161.5 31.2344C161.656 31.1094 161.786 31.0469 161.891 31.0469C162.016 31.0469 162.146 31.1094 162.281 31.2344C162.719 31.6302 163.089 32.0104 163.391 32.375C163.703 32.7292 163.969 33.0729 164.188 33.4062C164.292 33.5729 164.344 33.8021 164.344 34.0938V35.6094C164.344 37.3281 163.922 38.776 163.078 39.9531C162.245 41.1302 161.177 42.0885 159.875 42.8281C161.104 43.5573 162.104 44.3438 162.875 45.1875C163.646 46.0208 164.214 47.0104 164.578 48.1562C164.943 49.2917 165.125 50.6771 165.125 52.3125V53.1719C165.125 53.4844 165.057 53.7031 164.922 53.8281C164.797 53.9427 164.578 54 164.266 54H160.938C160.625 54 160.401 53.9427 160.266 53.8281C160.141 53.7031 160.078 53.4844 160.078 53.1719V52.3125C160.078 51.1979 159.974 50.2292 159.766 49.4062C159.568 48.5833 159.167 47.8438 158.562 47.1875C157.969 46.5208 157.083 45.8698 155.906 45.2344Z" fill="#E15B10"/>
</g>
<defs>
<linearGradient id="paint0_linear_175_94" x1="7.42859" y1="20.2143" x2="22.4286" y2="37.7143" gradientUnits="userSpaceOnUse">
<stop stop-color="#EA6D27"/>
<stop offset="1" stop-color="#EAA827"/>
</linearGradient>
<linearGradient id="paint1_linear_175_94" x1="6.42857" y1="30.7144" x2="35" y2="46.4286" gradientUnits="userSpaceOnUse">
<stop stop-color="#FF9400"/>
<stop offset="1" stop-color="#EA6D27"/>
</linearGradient>
<clipPath id="clip0_175_94">
<rect width="198" height="55" fill="white"/>
</clipPath>
</defs>
</svg>
